<svg width="113" height="112" viewBox="0 0 113 112" fill="none" xmlns="http://www.w3.org/2000/svg">
<rect x="0.5" width="112" height="112" rx="56" fill="#F7FAFC"/>
<path d="M40.5 53C38.84 53 37.5 54.34 37.5 56C37.5 57.66 38.84 59 40.5 59C42.16 59 43.5 57.66 43.5 56C43.5 54.34 42.16 53 40.5 53ZM40.5 41C38.84 41 37.5 42.34 37.5 44C37.5 45.66 38.84 47 40.5 47C42.16 47 43.5 45.66 43.5 44C43.5 42.34 42.16 41 40.5 41ZM40.5 65C38.84 65 37.5 66.36 37.5 68C37.5 69.64 38.86 71 40.5 71C42.14 71 43.5 69.64 43.5 68C43.5 66.36 42.16 65 40.5 65ZM46.5 70H74.5V66H46.5V70ZM46.5 58H74.5V54H46.5V58ZM46.5 42V46H74.5V42H46.5Z" fill="#718096"/>
</svg>
